{"accessors" : [{"bufferView" : 0, "byteOffset" : 0, "componentType" : 5123, "count" : 1068, "type" : "SCALAR", "max" : [887], "min" : [0]}, {"bufferView" : 1, "byteOffset" : 0, "componentType" : 5126, "count" : 888, "type" : "VEC3", "max" : [1.4142520427703857, 2.3919999599456787, 0.6532760262489319], "min" : [-1.4142520427703857, -0.05361500009894371, -0.6532760262489319], "name" : "POSITION"}, {"bufferView" : 1, "byteOffset" : 12, "componentType" : 5126, "count" : 888, "type" : "VEC2", "max" : [0.9588000178337097, 0.946399986743927], "min" : [0.040800001472234726, 0.05169999599456787], "name" : "TEXCOORD_0"}], "asset" : {"generator" : "Aspose.3D 24.1.0", "version" : "2.0"}, "buffers" : [{"uri" : "data:application/octet-stream;base64,", "byteLength" : 23504}], "bufferViews" : [{"buffer" : 0, "byteOffset" : 0, "byteLength" : 2136, "target" : 34963}, {"buffer" : 0, "byteOffset" : 2140, "byteLength" : 21360, "byteStride" : 20, "target" : 34962}], "meshes" : [{"primitives" : [{"attributes" : {"POSITION" : 1, "TEXCOORD_0" : 2}, "indices" : 0, "mode" : 4}], "name" : ""}], "nodes" : [{"mesh" : 0, "name" : "Vert"}], "scene" : 0, "scenes" : [{"nodes" : [0]}]}